<svg preserveAspectRatio="none" overflow="visible" style="display: block;" width="36" height="36" viewBox="0 0 36 36" fill="none" xmlns="http://www.w3.org/2000/svg">
<g id="TikTok" clip-path="url(#clip0_0_25)">
<path id="Vector" d="M17.934 35.07C27.3615 35.07 35.004 27.4275 35.004 18C35.004 8.5725 27.3615 0.929999 17.934 0.929999C8.5065 0.929999 0.863999 8.5725 0.863999 18C0.863999 27.4275 8.5065 35.07 17.934 35.07Z" fill="white"/>
<path id="Vector_2" d="M18 0C8.058 0 0 8.058 0 18C0 27.942 8.058 36 18 36C27.942 36 36 27.942 36 18C36 8.058 27.942 0 18 0ZM28.359 15.75H28.356C28.164 15.768 27.969 15.78 27.777 15.78C25.653 15.78 23.673 14.709 22.509 12.933V22.629C22.509 26.586 19.302 29.796 15.342 29.796C11.385 29.796 8.175 26.589 8.175 22.629C8.175 18.669 11.382 15.462 15.342 15.462C15.492 15.462 15.639 15.474 15.786 15.486V19.017C15.639 18.999 15.495 18.972 15.342 18.972C13.323 18.972 11.685 20.61 11.685 22.629C11.685 24.648 13.323 26.286 15.342 26.286C17.361 26.286 19.146 24.693 19.146 22.674L19.182 6.207H22.56C22.878 9.237 25.32 11.604 28.359 11.826V15.75Z" fill="#002788"/>
</g>
<defs>
<clipPath id="clip0_0_25">
<rect width="36" height="36" fill="white"/>
</clipPath>
</defs>
</svg>
